<mxfile host="Electron" modified="2024-07-07T01:58:41.786Z" agent="Mozilla/5.0 (Windows NT 10.0; Win64; x64) AppleWebKit/537.36 (KHTML, like Gecko) draw.io/24.2.5 Chrome/120.0.6099.109 Electron/28.1.0 Safari/537.36" etag="Ru2jqa9zKOX-nV668KOC" version="24.2.5" type="device">
  <diagram name="Página-1" id="yaUZyIik-JmLecXdLBgr">
    <mxGraphModel dx="1600" dy="953" grid="1" gridSize="10" guides="1" tooltips="1" connect="1" arrows="1" fold="1" page="1" pageScale="1" pageWidth="827" pageHeight="1169" math="0" shadow="0">
      <root>
        <mxCell id="0" />
        <mxCell id="1" parent="0" />
        <mxCell id="bHBypFLLKrIF1gswNG2I-41" value="" style="rounded=1;whiteSpace=wrap;html=1;fillColor=#dae8fc;strokeColor=none;" vertex="1" parent="1">
          <mxGeometry x="467" y="335" width="160" height="110" as="geometry" />
        </mxCell>
        <mxCell id="bHBypFLLKrIF1gswNG2I-24" value="" style="group;strokeColor=none;" vertex="1" connectable="0" parent="1">
          <mxGeometry x="140" y="158" width="300" height="162" as="geometry" />
        </mxCell>
        <mxCell id="bHBypFLLKrIF1gswNG2I-1" value="" style="rounded=1;whiteSpace=wrap;html=1;fillColor=#dae8fc;strokeColor=none;" vertex="1" parent="bHBypFLLKrIF1gswNG2I-24">
          <mxGeometry y="22" width="300" height="128" as="geometry" />
        </mxCell>
        <mxCell id="bHBypFLLKrIF1gswNG2I-4" style="edgeStyle=orthogonalEdgeStyle;rounded=0;orthogonalLoop=1;jettySize=auto;html=1;exitX=0.25;exitY=1;exitDx=0;exitDy=0;entryX=0.25;entryY=0;entryDx=0;entryDy=0;" edge="1" parent="bHBypFLLKrIF1gswNG2I-24" source="bHBypFLLKrIF1gswNG2I-2" target="bHBypFLLKrIF1gswNG2I-3">
          <mxGeometry relative="1" as="geometry" />
        </mxCell>
        <mxCell id="bHBypFLLKrIF1gswNG2I-2" value="&lt;font style=&quot;font-size: 14px;&quot;&gt;Planejar&lt;/font&gt;&lt;div style=&quot;font-size: 14px;&quot;&gt;&lt;font style=&quot;font-size: 14px;&quot;&gt;Escopo&lt;/font&gt;&lt;/div&gt;" style="rounded=0;whiteSpace=wrap;html=1;" vertex="1" parent="bHBypFLLKrIF1gswNG2I-24">
          <mxGeometry x="29.032258064516128" y="40" width="116.12903225806451" height="42" as="geometry" />
        </mxCell>
        <mxCell id="bHBypFLLKrIF1gswNG2I-5" style="edgeStyle=orthogonalEdgeStyle;rounded=0;orthogonalLoop=1;jettySize=auto;html=1;exitX=0.75;exitY=0;exitDx=0;exitDy=0;entryX=0.75;entryY=1;entryDx=0;entryDy=0;" edge="1" parent="bHBypFLLKrIF1gswNG2I-24" source="bHBypFLLKrIF1gswNG2I-3" target="bHBypFLLKrIF1gswNG2I-2">
          <mxGeometry relative="1" as="geometry" />
        </mxCell>
        <mxCell id="bHBypFLLKrIF1gswNG2I-8" style="edgeStyle=orthogonalEdgeStyle;rounded=0;orthogonalLoop=1;jettySize=auto;html=1;exitX=1;exitY=0.5;exitDx=0;exitDy=0;entryX=0;entryY=0.5;entryDx=0;entryDy=0;" edge="1" parent="bHBypFLLKrIF1gswNG2I-24" source="bHBypFLLKrIF1gswNG2I-3" target="bHBypFLLKrIF1gswNG2I-6">
          <mxGeometry relative="1" as="geometry" />
        </mxCell>
        <mxCell id="bHBypFLLKrIF1gswNG2I-3" value="&lt;span style=&quot;font-size: 14px;&quot;&gt;Definir Escopo&lt;/span&gt;" style="rounded=0;whiteSpace=wrap;html=1;" vertex="1" parent="bHBypFLLKrIF1gswNG2I-24">
          <mxGeometry x="29.032258064516128" y="102" width="116.12903225806451" height="28" as="geometry" />
        </mxCell>
        <mxCell id="bHBypFLLKrIF1gswNG2I-6" value="&lt;span style=&quot;font-size: 14px;&quot;&gt;Criar&amp;nbsp;&lt;/span&gt;&lt;div&gt;&lt;span style=&quot;font-size: 14px;&quot;&gt;WBS&lt;/span&gt;&lt;/div&gt;" style="rounded=0;whiteSpace=wrap;html=1;" vertex="1" parent="bHBypFLLKrIF1gswNG2I-24">
          <mxGeometry x="187.74193548387098" y="40" width="87.09677419354838" height="42" as="geometry" />
        </mxCell>
        <mxCell id="bHBypFLLKrIF1gswNG2I-9" value="&lt;b&gt;&lt;font style=&quot;font-size: 16px;&quot;&gt;Escopo&lt;/font&gt;&lt;/b&gt;" style="text;html=1;align=center;verticalAlign=middle;whiteSpace=wrap;rounded=0;" vertex="1" parent="bHBypFLLKrIF1gswNG2I-24">
          <mxGeometry x="120.96774193548387" width="58.064516129032256" height="22" as="geometry" />
        </mxCell>
        <mxCell id="bHBypFLLKrIF1gswNG2I-40" value="" style="rounded=1;whiteSpace=wrap;html=1;fillColor=#dae8fc;strokeColor=none;" vertex="1" parent="1">
          <mxGeometry x="660" y="175" width="140" height="285" as="geometry" />
        </mxCell>
        <mxCell id="bHBypFLLKrIF1gswNG2I-37" value="" style="rounded=1;whiteSpace=wrap;html=1;fillColor=#dae8fc;strokeColor=none;" vertex="1" parent="1">
          <mxGeometry x="467" y="175" width="247" height="128" as="geometry" />
        </mxCell>
        <mxCell id="bHBypFLLKrIF1gswNG2I-22" value="" style="group" vertex="1" connectable="0" parent="1">
          <mxGeometry x="140" y="313" width="195" height="447" as="geometry" />
        </mxCell>
        <mxCell id="bHBypFLLKrIF1gswNG2I-10" value="&lt;b&gt;&lt;font style=&quot;font-size: 16px;&quot;&gt;Risco&lt;/font&gt;&lt;/b&gt;" style="text;html=1;align=center;verticalAlign=middle;whiteSpace=wrap;rounded=0;" vertex="1" parent="bHBypFLLKrIF1gswNG2I-22">
          <mxGeometry x="67.5" width="60" height="20" as="geometry" />
        </mxCell>
        <mxCell id="bHBypFLLKrIF1gswNG2I-11" value="" style="rounded=1;whiteSpace=wrap;html=1;fillColor=#dae8fc;strokeColor=none;" vertex="1" parent="bHBypFLLKrIF1gswNG2I-22">
          <mxGeometry y="17" width="195" height="403" as="geometry" />
        </mxCell>
        <mxCell id="bHBypFLLKrIF1gswNG2I-14" style="edgeStyle=orthogonalEdgeStyle;rounded=0;orthogonalLoop=1;jettySize=auto;html=1;exitX=0.5;exitY=1;exitDx=0;exitDy=0;" edge="1" parent="bHBypFLLKrIF1gswNG2I-22" source="bHBypFLLKrIF1gswNG2I-12" target="bHBypFLLKrIF1gswNG2I-13">
          <mxGeometry relative="1" as="geometry" />
        </mxCell>
        <mxCell id="bHBypFLLKrIF1gswNG2I-12" value="&lt;span style=&quot;font-size: 14px;&quot;&gt;Planejar Gerenciamento de Risco&lt;/span&gt;" style="rounded=0;whiteSpace=wrap;html=1;" vertex="1" parent="bHBypFLLKrIF1gswNG2I-22">
          <mxGeometry x="42.5" y="30" width="110" height="60" as="geometry" />
        </mxCell>
        <mxCell id="bHBypFLLKrIF1gswNG2I-16" style="edgeStyle=orthogonalEdgeStyle;rounded=0;orthogonalLoop=1;jettySize=auto;html=1;exitX=0.5;exitY=1;exitDx=0;exitDy=0;entryX=0.5;entryY=0;entryDx=0;entryDy=0;" edge="1" parent="bHBypFLLKrIF1gswNG2I-22" source="bHBypFLLKrIF1gswNG2I-13" target="bHBypFLLKrIF1gswNG2I-15">
          <mxGeometry relative="1" as="geometry" />
        </mxCell>
        <mxCell id="bHBypFLLKrIF1gswNG2I-13" value="&lt;span style=&quot;font-size: 14px;&quot;&gt;Identificar&amp;nbsp;&lt;/span&gt;&lt;div&gt;&lt;span style=&quot;font-size: 14px;&quot;&gt;Riscos&lt;/span&gt;&lt;/div&gt;" style="rounded=0;whiteSpace=wrap;html=1;" vertex="1" parent="bHBypFLLKrIF1gswNG2I-22">
          <mxGeometry x="42.5" y="110" width="110" height="50" as="geometry" />
        </mxCell>
        <mxCell id="bHBypFLLKrIF1gswNG2I-18" style="edgeStyle=orthogonalEdgeStyle;rounded=0;orthogonalLoop=1;jettySize=auto;html=1;exitX=0.5;exitY=1;exitDx=0;exitDy=0;" edge="1" parent="bHBypFLLKrIF1gswNG2I-22" source="bHBypFLLKrIF1gswNG2I-15" target="bHBypFLLKrIF1gswNG2I-17">
          <mxGeometry relative="1" as="geometry" />
        </mxCell>
        <mxCell id="bHBypFLLKrIF1gswNG2I-15" value="&lt;font style=&quot;font-size: 14px;&quot;&gt;Análise &lt;br&gt;qualitativa de &lt;br&gt;riscos&lt;/font&gt;" style="rounded=0;whiteSpace=wrap;html=1;" vertex="1" parent="bHBypFLLKrIF1gswNG2I-22">
          <mxGeometry x="42.5" y="180" width="110" height="60" as="geometry" />
        </mxCell>
        <mxCell id="bHBypFLLKrIF1gswNG2I-20" style="edgeStyle=orthogonalEdgeStyle;rounded=0;orthogonalLoop=1;jettySize=auto;html=1;exitX=0.5;exitY=1;exitDx=0;exitDy=0;entryX=0.5;entryY=0;entryDx=0;entryDy=0;" edge="1" parent="bHBypFLLKrIF1gswNG2I-22" source="bHBypFLLKrIF1gswNG2I-17" target="bHBypFLLKrIF1gswNG2I-19">
          <mxGeometry relative="1" as="geometry" />
        </mxCell>
        <mxCell id="bHBypFLLKrIF1gswNG2I-17" value="&lt;font style=&quot;font-size: 14px;&quot;&gt;Análise &lt;br&gt;quantitativa de &lt;br&gt;riscos&lt;/font&gt;" style="rounded=0;whiteSpace=wrap;html=1;" vertex="1" parent="bHBypFLLKrIF1gswNG2I-22">
          <mxGeometry x="42.5" y="260" width="110" height="60" as="geometry" />
        </mxCell>
        <mxCell id="bHBypFLLKrIF1gswNG2I-19" value="&lt;span style=&quot;font-size: 14px;&quot;&gt;Planejar Resposta a risco&lt;/span&gt;" style="rounded=0;whiteSpace=wrap;html=1;" vertex="1" parent="bHBypFLLKrIF1gswNG2I-22">
          <mxGeometry x="42.5" y="340" width="110" height="60" as="geometry" />
        </mxCell>
        <mxCell id="bHBypFLLKrIF1gswNG2I-88" style="edgeStyle=orthogonalEdgeStyle;rounded=0;orthogonalLoop=1;jettySize=auto;html=1;exitX=1;exitY=0.5;exitDx=0;exitDy=0;entryX=0;entryY=0.5;entryDx=0;entryDy=0;" edge="1" parent="1" source="bHBypFLLKrIF1gswNG2I-23" target="bHBypFLLKrIF1gswNG2I-26">
          <mxGeometry relative="1" as="geometry">
            <Array as="points">
              <mxPoint x="640" y="270" />
              <mxPoint x="640" y="283" />
            </Array>
          </mxGeometry>
        </mxCell>
        <mxCell id="bHBypFLLKrIF1gswNG2I-23" value="&lt;span style=&quot;font-size: 14px;&quot;&gt;Estimar&lt;/span&gt;&lt;div&gt;&lt;span style=&quot;font-size: 14px;&quot;&gt;Recursos&lt;/span&gt;&lt;/div&gt;" style="rounded=0;whiteSpace=wrap;html=1;" vertex="1" parent="1">
          <mxGeometry x="494" y="250" width="100" height="40" as="geometry" />
        </mxCell>
        <mxCell id="bHBypFLLKrIF1gswNG2I-75" style="edgeStyle=orthogonalEdgeStyle;rounded=0;orthogonalLoop=1;jettySize=auto;html=1;exitX=1;exitY=0.5;exitDx=0;exitDy=0;entryX=1;entryY=0.5;entryDx=0;entryDy=0;" edge="1" parent="1" source="bHBypFLLKrIF1gswNG2I-25" target="bHBypFLLKrIF1gswNG2I-47">
          <mxGeometry relative="1" as="geometry">
            <Array as="points">
              <mxPoint x="790" y="219" />
              <mxPoint x="790" y="350" />
            </Array>
          </mxGeometry>
        </mxCell>
        <mxCell id="bHBypFLLKrIF1gswNG2I-77" style="edgeStyle=orthogonalEdgeStyle;rounded=0;orthogonalLoop=1;jettySize=auto;html=1;exitX=0.5;exitY=1;exitDx=0;exitDy=0;" edge="1" parent="1" source="bHBypFLLKrIF1gswNG2I-25" target="bHBypFLLKrIF1gswNG2I-26">
          <mxGeometry relative="1" as="geometry" />
        </mxCell>
        <mxCell id="bHBypFLLKrIF1gswNG2I-25" value="&lt;span style=&quot;font-size: 14px;&quot;&gt;Definir&lt;/span&gt;&lt;div&gt;&lt;span style=&quot;font-size: 14px;&quot;&gt;Atividades&lt;/span&gt;&lt;/div&gt;" style="rounded=0;whiteSpace=wrap;html=1;" vertex="1" parent="1">
          <mxGeometry x="675" y="199" width="100" height="40" as="geometry" />
        </mxCell>
        <mxCell id="bHBypFLLKrIF1gswNG2I-90" style="edgeStyle=orthogonalEdgeStyle;rounded=0;orthogonalLoop=1;jettySize=auto;html=1;exitX=0;exitY=0.75;exitDx=0;exitDy=0;entryX=0;entryY=0.5;entryDx=0;entryDy=0;" edge="1" parent="1" source="bHBypFLLKrIF1gswNG2I-26" target="bHBypFLLKrIF1gswNG2I-48">
          <mxGeometry relative="1" as="geometry">
            <Array as="points">
              <mxPoint x="650" y="293" />
              <mxPoint x="650" y="415" />
            </Array>
          </mxGeometry>
        </mxCell>
        <mxCell id="bHBypFLLKrIF1gswNG2I-91" style="edgeStyle=orthogonalEdgeStyle;rounded=0;orthogonalLoop=1;jettySize=auto;html=1;exitX=0;exitY=0.75;exitDx=0;exitDy=0;entryX=1;entryY=0.5;entryDx=0;entryDy=0;" edge="1" parent="1" source="bHBypFLLKrIF1gswNG2I-26" target="bHBypFLLKrIF1gswNG2I-43">
          <mxGeometry relative="1" as="geometry">
            <Array as="points">
              <mxPoint x="650" y="293" />
              <mxPoint x="650" y="415" />
            </Array>
          </mxGeometry>
        </mxCell>
        <mxCell id="bHBypFLLKrIF1gswNG2I-26" value="&lt;span style=&quot;font-size: 14px;&quot;&gt;Estimar Duração&lt;/span&gt;" style="rounded=0;whiteSpace=wrap;html=1;" vertex="1" parent="1">
          <mxGeometry x="675" y="263" width="100" height="40" as="geometry" />
        </mxCell>
        <mxCell id="bHBypFLLKrIF1gswNG2I-44" style="edgeStyle=orthogonalEdgeStyle;rounded=0;orthogonalLoop=1;jettySize=auto;html=1;exitX=0.5;exitY=1;exitDx=0;exitDy=0;entryX=0.5;entryY=0;entryDx=0;entryDy=0;" edge="1" parent="1" source="bHBypFLLKrIF1gswNG2I-42" target="bHBypFLLKrIF1gswNG2I-43">
          <mxGeometry relative="1" as="geometry" />
        </mxCell>
        <mxCell id="bHBypFLLKrIF1gswNG2I-86" style="edgeStyle=orthogonalEdgeStyle;rounded=0;orthogonalLoop=1;jettySize=auto;html=1;exitX=1;exitY=0.5;exitDx=0;exitDy=0;entryX=0;entryY=0.5;entryDx=0;entryDy=0;" edge="1" parent="1" source="bHBypFLLKrIF1gswNG2I-42" target="bHBypFLLKrIF1gswNG2I-26">
          <mxGeometry relative="1" as="geometry">
            <Array as="points">
              <mxPoint x="640" y="366" />
              <mxPoint x="640" y="283" />
            </Array>
          </mxGeometry>
        </mxCell>
        <mxCell id="bHBypFLLKrIF1gswNG2I-42" value="&lt;span style=&quot;font-size: 14px;&quot;&gt;Estimar Custos&lt;/span&gt;" style="rounded=0;whiteSpace=wrap;html=1;" vertex="1" parent="1">
          <mxGeometry x="484.5" y="350" width="125" height="31" as="geometry" />
        </mxCell>
        <mxCell id="bHBypFLLKrIF1gswNG2I-43" value="&lt;span style=&quot;font-size: 14px;&quot;&gt;Orçamentação&lt;/span&gt;" style="rounded=0;whiteSpace=wrap;html=1;" vertex="1" parent="1">
          <mxGeometry x="484.5" y="400" width="125" height="31" as="geometry" />
        </mxCell>
        <mxCell id="bHBypFLLKrIF1gswNG2I-45" value="&lt;b&gt;&lt;font style=&quot;font-size: 16px;&quot;&gt;Tempo&lt;/font&gt;&lt;/b&gt;" style="text;html=1;align=center;verticalAlign=middle;whiteSpace=wrap;rounded=0;" vertex="1" parent="1">
          <mxGeometry x="604" y="153" width="60" height="22" as="geometry" />
        </mxCell>
        <mxCell id="bHBypFLLKrIF1gswNG2I-46" value="&lt;b&gt;&lt;font style=&quot;font-size: 16px;&quot;&gt;Custo&lt;/font&gt;&lt;/b&gt;" style="text;html=1;align=center;verticalAlign=middle;whiteSpace=wrap;rounded=0;" vertex="1" parent="1">
          <mxGeometry x="517" y="313" width="60" height="22" as="geometry" />
        </mxCell>
        <mxCell id="bHBypFLLKrIF1gswNG2I-78" style="edgeStyle=orthogonalEdgeStyle;rounded=0;orthogonalLoop=1;jettySize=auto;html=1;exitX=0.5;exitY=0;exitDx=0;exitDy=0;" edge="1" parent="1" source="bHBypFLLKrIF1gswNG2I-47" target="bHBypFLLKrIF1gswNG2I-26">
          <mxGeometry relative="1" as="geometry" />
        </mxCell>
        <mxCell id="bHBypFLLKrIF1gswNG2I-89" style="edgeStyle=orthogonalEdgeStyle;rounded=0;orthogonalLoop=1;jettySize=auto;html=1;exitX=0.5;exitY=1;exitDx=0;exitDy=0;" edge="1" parent="1" source="bHBypFLLKrIF1gswNG2I-47" target="bHBypFLLKrIF1gswNG2I-48">
          <mxGeometry relative="1" as="geometry" />
        </mxCell>
        <mxCell id="bHBypFLLKrIF1gswNG2I-47" value="&lt;span style=&quot;font-size: 14px;&quot;&gt;Sequenciar&lt;/span&gt;&lt;div&gt;&lt;span style=&quot;font-size: 14px;&quot;&gt;Atividades&lt;/span&gt;&lt;/div&gt;" style="rounded=0;whiteSpace=wrap;html=1;" vertex="1" parent="1">
          <mxGeometry x="675" y="330" width="100" height="40" as="geometry" />
        </mxCell>
        <mxCell id="bHBypFLLKrIF1gswNG2I-48" value="&lt;font style=&quot;font-size: 14px;&quot;&gt;Desenvolver&lt;/font&gt;&lt;div style=&quot;font-size: 14px;&quot;&gt;&lt;font style=&quot;font-size: 14px;&quot;&gt;Cronograma&lt;/font&gt;&lt;/div&gt;" style="rounded=0;whiteSpace=wrap;html=1;" vertex="1" parent="1">
          <mxGeometry x="675" y="395.5" width="100" height="40" as="geometry" />
        </mxCell>
        <mxCell id="bHBypFLLKrIF1gswNG2I-49" style="edgeStyle=orthogonalEdgeStyle;rounded=0;orthogonalLoop=1;jettySize=auto;html=1;exitX=1;exitY=0.5;exitDx=0;exitDy=0;" edge="1" parent="1" source="bHBypFLLKrIF1gswNG2I-6" target="bHBypFLLKrIF1gswNG2I-25">
          <mxGeometry relative="1" as="geometry" />
        </mxCell>
        <mxCell id="bHBypFLLKrIF1gswNG2I-52" value="" style="endArrow=classic;html=1;rounded=0;entryX=1;entryY=0.25;entryDx=0;entryDy=0;" edge="1" parent="1" target="bHBypFLLKrIF1gswNG2I-6">
          <mxGeometry width="50" height="50" relative="1" as="geometry">
            <mxPoint x="466" y="208" as="sourcePoint" />
            <mxPoint x="510" y="200" as="targetPoint" />
          </mxGeometry>
        </mxCell>
        <mxCell id="bHBypFLLKrIF1gswNG2I-56" style="edgeStyle=orthogonalEdgeStyle;rounded=0;orthogonalLoop=1;jettySize=auto;html=1;exitX=0.5;exitY=1;exitDx=0;exitDy=0;entryX=0.5;entryY=0;entryDx=0;entryDy=0;" edge="1" parent="1" source="bHBypFLLKrIF1gswNG2I-54" target="bHBypFLLKrIF1gswNG2I-55">
          <mxGeometry relative="1" as="geometry" />
        </mxCell>
        <mxCell id="bHBypFLLKrIF1gswNG2I-71" style="edgeStyle=orthogonalEdgeStyle;rounded=0;orthogonalLoop=1;jettySize=auto;html=1;exitX=1;exitY=0.5;exitDx=0;exitDy=0;" edge="1" parent="1" source="bHBypFLLKrIF1gswNG2I-54" target="bHBypFLLKrIF1gswNG2I-43">
          <mxGeometry relative="1" as="geometry">
            <Array as="points">
              <mxPoint x="632" y="565" />
              <mxPoint x="632" y="460" />
              <mxPoint x="547" y="460" />
            </Array>
          </mxGeometry>
        </mxCell>
        <mxCell id="bHBypFLLKrIF1gswNG2I-54" value="&lt;font style=&quot;font-size: 14px;&quot;&gt;Planejar&lt;/font&gt;&lt;div&gt;&lt;span style=&quot;font-size: 14px; background-color: initial;&quot;&gt;Qualidade&lt;/span&gt;&lt;/div&gt;" style="rounded=0;whiteSpace=wrap;html=1;" vertex="1" parent="1">
          <mxGeometry x="482.25" y="540" width="129.5" height="50" as="geometry" />
        </mxCell>
        <mxCell id="bHBypFLLKrIF1gswNG2I-67" style="edgeStyle=orthogonalEdgeStyle;rounded=0;orthogonalLoop=1;jettySize=auto;html=1;exitX=0.5;exitY=1;exitDx=0;exitDy=0;entryX=0.5;entryY=0;entryDx=0;entryDy=0;" edge="1" parent="1" source="bHBypFLLKrIF1gswNG2I-55" target="bHBypFLLKrIF1gswNG2I-57">
          <mxGeometry relative="1" as="geometry" />
        </mxCell>
        <mxCell id="bHBypFLLKrIF1gswNG2I-72" style="edgeStyle=orthogonalEdgeStyle;rounded=0;orthogonalLoop=1;jettySize=auto;html=1;exitX=1;exitY=0.5;exitDx=0;exitDy=0;entryX=0.5;entryY=1;entryDx=0;entryDy=0;" edge="1" parent="1" source="bHBypFLLKrIF1gswNG2I-55" target="bHBypFLLKrIF1gswNG2I-43">
          <mxGeometry relative="1" as="geometry">
            <Array as="points">
              <mxPoint x="632" y="635" />
              <mxPoint x="632" y="460" />
              <mxPoint x="547" y="460" />
            </Array>
          </mxGeometry>
        </mxCell>
        <mxCell id="bHBypFLLKrIF1gswNG2I-55" value="&lt;font style=&quot;font-size: 14px;&quot;&gt;Planejar&lt;/font&gt;&lt;div&gt;&lt;span style=&quot;font-size: 14px; background-color: initial;&quot;&gt;Comunicações&lt;/span&gt;&lt;/div&gt;" style="rounded=0;whiteSpace=wrap;html=1;" vertex="1" parent="1">
          <mxGeometry x="482.25" y="610" width="129.5" height="50" as="geometry" />
        </mxCell>
        <mxCell id="bHBypFLLKrIF1gswNG2I-69" style="edgeStyle=orthogonalEdgeStyle;rounded=0;orthogonalLoop=1;jettySize=auto;html=1;exitX=1;exitY=0.5;exitDx=0;exitDy=0;entryX=0;entryY=0.5;entryDx=0;entryDy=0;" edge="1" parent="1" source="bHBypFLLKrIF1gswNG2I-57" target="bHBypFLLKrIF1gswNG2I-68">
          <mxGeometry relative="1" as="geometry" />
        </mxCell>
        <mxCell id="bHBypFLLKrIF1gswNG2I-57" value="&lt;font style=&quot;font-size: 14px;&quot;&gt;Planejar&lt;/font&gt;&lt;div&gt;&lt;span style=&quot;font-size: 14px; background-color: initial;&quot;&gt;Aquisições&lt;/span&gt;&lt;/div&gt;" style="rounded=0;whiteSpace=wrap;html=1;" vertex="1" parent="1">
          <mxGeometry x="482.25" y="680" width="129.5" height="50" as="geometry" />
        </mxCell>
        <mxCell id="bHBypFLLKrIF1gswNG2I-53" style="edgeStyle=orthogonalEdgeStyle;rounded=0;orthogonalLoop=1;jettySize=auto;html=1;exitX=0.5;exitY=1;exitDx=0;exitDy=0;entryX=0;entryY=0.5;entryDx=0;entryDy=0;" edge="1" parent="1" source="bHBypFLLKrIF1gswNG2I-6" target="bHBypFLLKrIF1gswNG2I-57">
          <mxGeometry relative="1" as="geometry">
            <mxPoint x="371.62068965517244" y="670.6896551724138" as="targetPoint" />
          </mxGeometry>
        </mxCell>
        <mxCell id="bHBypFLLKrIF1gswNG2I-58" style="edgeStyle=orthogonalEdgeStyle;rounded=0;orthogonalLoop=1;jettySize=auto;html=1;exitX=0.5;exitY=1;exitDx=0;exitDy=0;entryX=1;entryY=0.5;entryDx=0;entryDy=0;" edge="1" parent="1" source="bHBypFLLKrIF1gswNG2I-6" target="bHBypFLLKrIF1gswNG2I-12">
          <mxGeometry relative="1" as="geometry" />
        </mxCell>
        <mxCell id="bHBypFLLKrIF1gswNG2I-59" style="edgeStyle=orthogonalEdgeStyle;rounded=0;orthogonalLoop=1;jettySize=auto;html=1;exitX=0.5;exitY=1;exitDx=0;exitDy=0;entryX=0;entryY=0.5;entryDx=0;entryDy=0;" edge="1" parent="1" source="bHBypFLLKrIF1gswNG2I-6" target="bHBypFLLKrIF1gswNG2I-23">
          <mxGeometry relative="1" as="geometry" />
        </mxCell>
        <mxCell id="bHBypFLLKrIF1gswNG2I-60" style="edgeStyle=orthogonalEdgeStyle;rounded=0;orthogonalLoop=1;jettySize=auto;html=1;exitX=0.5;exitY=1;exitDx=0;exitDy=0;entryX=0;entryY=0.5;entryDx=0;entryDy=0;" edge="1" parent="1" source="bHBypFLLKrIF1gswNG2I-6" target="bHBypFLLKrIF1gswNG2I-42">
          <mxGeometry relative="1" as="geometry" />
        </mxCell>
        <mxCell id="bHBypFLLKrIF1gswNG2I-61" style="edgeStyle=orthogonalEdgeStyle;rounded=0;orthogonalLoop=1;jettySize=auto;html=1;exitX=0.5;exitY=1;exitDx=0;exitDy=0;entryX=0;entryY=0.5;entryDx=0;entryDy=0;" edge="1" parent="1" source="bHBypFLLKrIF1gswNG2I-6" target="bHBypFLLKrIF1gswNG2I-43">
          <mxGeometry relative="1" as="geometry" />
        </mxCell>
        <mxCell id="bHBypFLLKrIF1gswNG2I-62" style="edgeStyle=orthogonalEdgeStyle;rounded=0;orthogonalLoop=1;jettySize=auto;html=1;exitX=0.5;exitY=1;exitDx=0;exitDy=0;entryX=0;entryY=0.5;entryDx=0;entryDy=0;" edge="1" parent="1" source="bHBypFLLKrIF1gswNG2I-6" target="bHBypFLLKrIF1gswNG2I-54">
          <mxGeometry relative="1" as="geometry" />
        </mxCell>
        <mxCell id="bHBypFLLKrIF1gswNG2I-63" style="edgeStyle=orthogonalEdgeStyle;rounded=0;orthogonalLoop=1;jettySize=auto;html=1;exitX=0.5;exitY=1;exitDx=0;exitDy=0;entryX=0;entryY=0.5;entryDx=0;entryDy=0;" edge="1" parent="1" source="bHBypFLLKrIF1gswNG2I-6" target="bHBypFLLKrIF1gswNG2I-55">
          <mxGeometry relative="1" as="geometry" />
        </mxCell>
        <mxCell id="bHBypFLLKrIF1gswNG2I-66" style="edgeStyle=orthogonalEdgeStyle;rounded=0;orthogonalLoop=1;jettySize=auto;html=1;exitX=0.5;exitY=1;exitDx=0;exitDy=0;entryX=0.5;entryY=0;entryDx=0;entryDy=0;" edge="1" parent="1" source="bHBypFLLKrIF1gswNG2I-64" target="bHBypFLLKrIF1gswNG2I-54">
          <mxGeometry relative="1" as="geometry" />
        </mxCell>
        <mxCell id="bHBypFLLKrIF1gswNG2I-79" style="edgeStyle=orthogonalEdgeStyle;rounded=0;orthogonalLoop=1;jettySize=auto;html=1;exitX=1;exitY=0.5;exitDx=0;exitDy=0;" edge="1" parent="1" source="bHBypFLLKrIF1gswNG2I-64" target="bHBypFLLKrIF1gswNG2I-48">
          <mxGeometry relative="1" as="geometry" />
        </mxCell>
        <mxCell id="bHBypFLLKrIF1gswNG2I-64" value="&lt;font style=&quot;font-size: 14px;&quot;&gt;Planejar&lt;/font&gt;&lt;div&gt;&lt;span style=&quot;font-size: 14px; background-color: initial;&quot;&gt;RH - Recursos&lt;/span&gt;&lt;/div&gt;" style="rounded=0;whiteSpace=wrap;html=1;" vertex="1" parent="1">
          <mxGeometry x="482.25" y="470" width="129.5" height="50" as="geometry" />
        </mxCell>
        <mxCell id="bHBypFLLKrIF1gswNG2I-65" style="edgeStyle=orthogonalEdgeStyle;rounded=0;orthogonalLoop=1;jettySize=auto;html=1;exitX=0.5;exitY=1;exitDx=0;exitDy=0;entryX=0;entryY=0.5;entryDx=0;entryDy=0;" edge="1" parent="1" source="bHBypFLLKrIF1gswNG2I-6" target="bHBypFLLKrIF1gswNG2I-64">
          <mxGeometry relative="1" as="geometry" />
        </mxCell>
        <mxCell id="bHBypFLLKrIF1gswNG2I-73" style="edgeStyle=orthogonalEdgeStyle;rounded=0;orthogonalLoop=1;jettySize=auto;html=1;exitX=0.5;exitY=0;exitDx=0;exitDy=0;" edge="1" parent="1" source="bHBypFLLKrIF1gswNG2I-68" target="bHBypFLLKrIF1gswNG2I-43">
          <mxGeometry relative="1" as="geometry">
            <Array as="points">
              <mxPoint x="706" y="635" />
              <mxPoint x="632" y="635" />
              <mxPoint x="632" y="460" />
              <mxPoint x="547" y="460" />
            </Array>
          </mxGeometry>
        </mxCell>
        <mxCell id="bHBypFLLKrIF1gswNG2I-68" value="&lt;font style=&quot;font-size: 14px;&quot;&gt;Planejar&lt;/font&gt;&lt;div&gt;&lt;span style=&quot;font-size: 14px; background-color: initial;&quot;&gt;Contrata&lt;/span&gt;&lt;span style=&quot;font-size: 14px; background-color: initial;&quot;&gt;ções&lt;/span&gt;&lt;/div&gt;" style="rounded=0;whiteSpace=wrap;html=1;" vertex="1" parent="1">
          <mxGeometry x="641" y="680" width="129.5" height="50" as="geometry" />
        </mxCell>
      </root>
    </mxGraphModel>
  </diagram>
</mxfile>
